<svg xmlns="http://www.w3.org/2000/svg" viewBox="0 0 84 84" fill="none">
  <rect width="84" height="84" rx="18" fill="#090d18"/>
  <defs>
    <linearGradient id="favSilver" x1="10" y1="8" x2="58" y2="70" gradientUnits="userSpaceOnUse">
      <stop offset="0" stop-color="#f5f6f8"/>
      <stop offset="0.28" stop-color="#d9dbe2"/>
      <stop offset="0.52" stop-color="#8a8f9a"/>
      <stop offset="0.76" stop-color="#d8dae0"/>
      <stop offset="1" stop-color="#f8f8fa"/>
    </linearGradient>
    <linearGradient id="favGold" x1="22" y1="8" x2="62" y2="64" gradientUnits="userSpaceOnUse">
      <stop offset="0" stop-color="#fbf0cb"/>
      <stop offset="0.22" stop-color="#ead39a"/>
      <stop offset="0.5" stop-color="#be914c"/>
      <stop offset="0.78" stop-color="#e3c07a"/>
      <stop offset="1" stop-color="#f8e6bc"/>
    </linearGradient>
    <radialGradient id="favCore" cx="0" cy="0" r="1" gradientUnits="userSpaceOnUse" gradientTransform="translate(35.5 42) rotate(90) scale(7.5)">
      <stop offset="0" stop-color="#f7e4af"/>
      <stop offset="0.55" stop-color="#c8974b"/>
      <stop offset="1" stop-color="#8f642e"/>
    </radialGradient>
  </defs>

  <path d="M29 8.5A33.5 33.5 0 0 0 10.5 18A34 34 0 0 0 29 75.5" stroke="url(#favSilver)" stroke-width="8" stroke-linecap="square"/>
  <path d="M54 22A33.5 33.5 0 0 1 61 42A33.5 33.5 0 0 1 54 62" stroke="url(#favSilver)" stroke-width="8" stroke-linecap="square"/>
  <path d="M35.5 10V34.5" stroke="url(#favGold)" stroke-width="8.4" stroke-linecap="square"/>
  <path d="M35.5 48V74" stroke="url(#favSilver)" stroke-width="8.4" stroke-linecap="square"/>
  <path d="M35.5 42L60.5 16.5" stroke="url(#favGold)" stroke-width="8.4" stroke-linecap="square"/>
  <path d="M35.5 42L63.5 75" stroke="url(#favGold)" stroke-width="8.4" stroke-linecap="square"/>
  <path d="M27 42L13.5 31.5L27 42L13.5 52.5" stroke="url(#favSilver)" stroke-width="6.5" stroke-linecap="square" stroke-linejoin="bevel"/>
  <circle cx="35.5" cy="42" r="7.2" fill="url(#favCore)"/>
</svg>
